# xmcd
#
# Track frame offsets:
#	150
#	15225
#	35772
#	50112
#	65940
#	80690
#	95077
#	114332
#	131192
#	145770
#	165520
#	178832
#	198495
#	214345
#	231532
#
# Disc length: 3314 seconds
#
# Revision: 0
# Processed by: cddbd v1.5.2PL0 Copyright (c) Steve Scherf et al.
# Submitted via: EasyCDDAExtractor 16.0.6.1
#
DISCID=e80cf00f
DTITLE=Τσέρτος Μπάμπης - Της λυγερής απέναντι-Μ. Τσέρτος
DYEAR=2000
DGENRE=Παραδοσιακή
TTITLE0=Γιαννούλα Τσανακαλιώτισσα
TTITLE1=Ελένη Καλαματιανή
TTITLE2=Μεγαρίτισσα
TTITLE3=Κωνσταντινιά
TTITLE4=Μαρίτσα η Σμυρνιά
TTITLE5=Αιγιώτισσα
TTITLE6=Μαλάμω
TTITLE7=Κόφ'την, Ελένη, την ελιά
TTITLE8=Ντίνα, Κωνσταντίνα
TTITLE9=Η Χρύσω δεν εφάνη
TTITLE10=Παναγιούλα
TTITLE11=Σήκω, Διαμάντω
TTITLE12=Έμορφη Φιλιατρινούλα
TTITLE13=Ρηνιώ, Ρηνούλα
TTITLE14=Στέλλα
EXTD=
EXTT0=
EXTT1=
EXTT2=
EXTT3=
EXTT4=
EXTT5=
EXTT6=
EXTT7=
EXTT8=
EXTT9=
EXTT10=
EXTT11=
EXTT12=
EXTT13=
EXTT14=
PLAYORDER=
